<svg width="192" height="192" viewBox="0 0 192 192" fill="none" xmlns="http://www.w3.org/2000/svg">
<path d="M179.206 88.7503C179.206 135.908 141.265 174.136 94.4638 174.136C47.6622 174.136 9.722 135.908 9.722 88.7503C9.722 41.5931 47.6622 3.36464 94.4638 3.36464C141.265 3.36464 179.206 41.5931 179.206 88.7503Z" fill="white"/>
<path d="M13.2208 107.522C19.3319 154.464 61.9038 187.547 108.308 181.414C125.988 179.077 141.674 171.384 153.98 160.16C173.974 141.925 185.048 114.369 181.265 85.3118C175.154 38.3695 132.582 5.28704 86.1778 11.4202C39.7737 17.5533 7.10977 60.5795 13.2208 107.522Z" fill="#BA3DFF"/>
<path d="M151.205 153.357L111.842 180.887L166.154 190L153.98 160.16L151.205 153.357Z" fill="#BA3DFF"/>
<path d="M157.004 31.5729L124.737 50.4469L153.486 70.8169L75.7811 120.595L104.531 140.965L48.0678 160.32C61.2484 168.834 76.9229 173.771 93.7418 173.771C140.543 173.771 178.484 135.543 178.484 88.3857C178.484 66.5704 170.364 46.6659 157.004 31.5729Z" fill="white"/>
<path d="M35.535 150.442L53.6526 133.913L28.2633 115.924L102.087 64.5113L76.6981 46.5222L117.589 6.42743C110.025 4.19656 102.022 3 93.7418 3C46.9402 3 9 41.2285 9 88.3857C9 112.831 19.1952 134.877 35.535 150.442Z" fill="white"/>
<path d="M48.0678 160.32C43.5839 157.424 39.3886 154.113 35.535 150.442L10.648 173.147L48.0678 160.32Z" fill="white"/>
<path d="M48.0678 160.32C43.5839 157.424 39.3886 154.113 35.535 150.442L10.648 173.147L48.0678 160.32Z" fill="#BA3DFF"/>
<path d="M111.842 180.887L151.205 153.357L153.98 160.16C147.997 166.016 131.192 178.359 111.842 180.887Z" fill="#BA3DFF"/>
</svg>
